/* XPM */
static char *_70fbd50c4654cc2c0ef026bc69b295dgaNWfPnARJq2GA7E[] = {
/* columns rows colors chars-per-pixel */
"32 32 256 2 ",
"   c black",
".  c #010101",
"X  c #020202",
"o  c gray1",
"O  c #040404",
"+  c gray2",
"@  c #060606",
"#  c #070707",
"$  c gray3",
"%  c #090909",
"&  c gray4",
"*  c #0B0B0B",
"=  c #0C0C0C",
"-  c gray5",
";  c #0E0E0E",
":  c gray6",
">  c #101010",
",  c #111111",
"<  c gray7",
"1  c #131313",
"2  c gray8",
"3  c #151515",
"4  c #161616",
"5  c gray9",
"6  c #181818",
"7  c #191919",
"8  c gray10",
"9  c #1B1B1B",
"0  c gray11",
"q  c #1D1D1D",
"w  c #1E1E1E",
"e  c gray12",
"r  c #202020",
"t  c gray13",
"y  c #222222",
"u  c #232323",
"i  c gray14",
"p  c #252525",
"a  c gray15",
"s  c #272727",
"d  c #282828",
"f  c gray16",
"g  c #2A2A2A",
"h  c gray17",
"j  c #2C2C2C",
"k  c #2D2D2D",
"l  c gray18",
"z  c #2F2F2F",
"x  c gray19",
"c  c #313131",
"v  c #323232",
"b  c gray20",
"n  c #343434",
"m  c #353535",
"M  c gray21",
"N  c #373737",
"B  c gray22",
"V  c #393939",
"C  c #3A3A3A",
"Z  c gray23",
"A  c #3C3C3C",
"S  c gray24",
"D  c #3E3E3E",
"F  c #3F3F3F",
"G  c gray25",
"H  c #414141",
"J  c gray26",
"K  c #434343",
"L  c #444444",
"P  c gray27",
"I  c #464646",
"U  c gray28",
"Y  c #484848",
"T  c #494949",
"R  c gray29",
"E  c #4B4B4B",
"W  c #4C4C4C",
"Q  c gray30",
"!  c #4E4E4E",
"~  c gray31",
"^  c #505050",
"/  c #515151",
"(  c gray32",
")  c #535353",
"_  c gray33",
"`  c #555555",
"'  c #565656",
"]  c gray34",
"[  c #585858",
"{  c gray35",
"}  c #5A5A5A",
"|  c #5B5B5B",
" . c gray36",
".. c #5D5D5D",
"X. c gray37",
"o. c #5F5F5F",
"O. c #606060",
"+. c gray38",
"@. c #626262",
"#. c gray39",
"$. c #646464",
"%. c #656565",
"&. c gray40",
"*. c #676767",
"=. c #686868",
"-. c DimGray",
";. c #6A6A6A",
":. c gray42",
">. c #6C6C6C",
",. c #6D6D6D",
"<. c gray43",
"1. c #6F6F6F",
"2. c gray44",
"3. c #717171",
"4. c #727272",
"5. c gray45",
"6. c #747474",
"7. c gray46",
"8. c #767676",
"9. c #777777",
"0. c gray47",
"q. c #797979",
"w. c gray48",
"e. c #7B7B7B",
"r. c #7C7C7C",
"t. c gray49",
"y. c #7E7E7E",
"u. c gray50",
"i. c #808080",
"p. c #818181",
"a. c gray51",
"s. c #838383",
"d. c #848484",
"f. c gray52",
"g. c #868686",
"h. c gray53",
"j. c #888888",
"k. c #898989",
"l. c gray54",
"z. c #8B8B8B",
"x. c gray55",
"c. c #8D8D8D",
"v. c #8E8E8E",
"b. c gray56",
"n. c #909090",
"m. c gray57",
"M. c #929292",
"N. c #939393",
"B. c gray58",
"V. c #959595",
"C. c gray59",
"Z. c #979797",
"A. c #989898",
"S. c gray60",
"D. c #9A9A9A",
"F. c #9B9B9B",
"G. c gray61",
"H. c #9D9D9D",
"J. c gray62",
"K. c #9F9F9F",
"L. c #A0A0A0",
"P. c gray63",
"I. c #A2A2A2",
"U. c gray64",
"Y. c #A4A4A4",
"T. c #A5A5A5",
"R. c gray65",
"E. c #A7A7A7",
"W. c gray66",
"Q. c #A9A9A9",
"!. c #AAAAAA",
"~. c gray67",
"^. c #ACACAC",
"/. c gray68",
"(. c #AEAEAE",
"). c #AFAFAF",
"_. c gray69",
"`. c #B1B1B1",
"'. c #B2B2B2",
"]. c gray70",
"[. c #B4B4B4",
"{. c gray71",
"}. c #B6B6B6",
"|. c #B7B7B7",
" X c gray72",
".X c #B9B9B9",
"XX c gray73",
"oX c #BBBBBB",
"OX c #BCBCBC",
"+X c gray74",
"@X c gray",
"#X c gray75",
"$X c #C0C0C0",
"%X c #C1C1C1",
"&X c gray76",
"*X c #C3C3C3",
"=X c gray77",
"-X c #C5C5C5",
";X c #C6C6C6",
":X c gray78",
">X c #C8C8C8",
",X c gray79",
"<X c #CACACA",
"1X c #CBCBCB",
"2X c gray80",
"3X c #CDCDCD",
"4X c #CECECE",
"5X c gray81",
"6X c #D0D0D0",
"7X c gray82",
"8X c #D2D2D2",
"9X c LightGray",
"0X c gray83",
"qX c #D5D5D5",
"wX c gray84",
"eX c #D7D7D7",
"rX c #D8D8D8",
"tX c gray85",
"yX c #DADADA",
"uX c gray86",
"iX c gainsboro",
"pX c #DDDDDD",
"aX c gray87",
"sX c #DFDFDF",
"dX c gray88",
"fX c #E1E1E1",
"gX c #E2E2E2",
"hX c gray89",
"jX c #E4E4E4",
"kX c gray90",
"lX c #E6E6E6",
"zX c #E7E7E7",
"xX c gray91",
"cX c #E9E9E9",
"vX c #EAEAEA",
"bX c gray92",
"nX c #ECECEC",
"mX c gray93",
"MX c #EEEEEE",
"NX c #EFEFEF",
"BX c gray94",
"VX c #F1F1F1",
"CX c gray95",
"ZX c #F3F3F3",
"AX c #F4F4F4",
"SX c gray96",
"DX c #F6F6F6",
"FX c gray97",
"GX c #F8F8F8",
"HX c #F9F9F9",
"JX c gray98",
"KX c #FBFBFB",
"LX c gray99",
"PX c #FDFDFD",
"IX c #FEFEFE",
"UX c white",
/* pixels */
"U U U U K l u p N S S S S H I P D S F P K z u u h l v Z S S S S ",
"U U U U K l u p N S S S S H I P D S F I F g u 5 a k b Z S S S S ",
"U U U U K l u p N S S S S H I P D V D L k < p 0 < y z Z S S S S ",
"U U U U K l u p N S S S S J I P x g c i t 3 > y q , e b S S S S ",
"P P P P H l u p M Z Z A S H P J 0 7 g w , e 5 ; r w > q c Z Z Z ",
"F F F F A j y i z b M Z S D F D g : 5 d r > q 6 ; e w , 9 k b b ",
"S S S S C h y u h z b Z S S S Z c i ; 3 s t > 9 6 ; w w , 0 f l ",
"B B B B m f y y d h z M B B B M k j u - 1 a r > 8 6 ; q q , > i ",
"a a a a p u y y u u i p a a a p u u p 0 = < i e : 7 5 : q 0 - 0 ",
"y y y y y y u u u u u u u u u u y y y y q - < u q : 7 5 > 3 , y ",
"k k k k k k k l v b b b b b b x i y u d h d > < y 9 ; 8 1 & 8 k ",
"J J J J J J J L ! / / / / / / T f t f m Z U D , < r 7 ; - s G J ",
"P P P P I I U T ( ` ' ' ' ' ] Q c X.C Z U E ` V ; 2 r 4 8 D I P ",
"F F F F G K I U I U T W Q Q W Q c.&X:.0. .P W W b : , , f G F F ",
"S S S S D J I P F D G I Y U Q Z.iXaX$X<.F J U Y Y b : # e S S S ",
"C C C C B D J H S S D K L R A.iXaX&X=.N Z D J K P P c r m S S S ",
"x x x g 5 t c b Z S S S K M.iXaX&X#.p k x c v b A D D S S S S S ",
"j j h g e ; 0 l B Z C J V.iXaX&X#.u u g j j j l B Z Z Z Z Z Z Z ",
"d d d s g q = 8 z z C M.pXaX&X$.u y u a d d d f x c c c c c c c ",
"y y u 9 7 f 9 * 7 Y Z.pXaX&X#.u t y y y y y y u i i i i i i i i ",
"p u 7 r 2 7 f 7 - ;.9XyX&X&.p i a a a p i y y y i p p a a a a a ",
"N l 5 > t < 8 d 6 > 5.>Xa.Z N B F H S B n d y i v N Z G H H H H ",
"K k p 3 , r , 8 a 5 > %.:.T P I ( _ ! I G k y a S P R ) ` ` ` ` ",
"P r 4 p 1 < w > 7 p 6 = f T Y T ( ` ~ Y K z u a A L T ) ` ` ` ` ",
"_ S 4 5 u < 1 q > 5 u 6 * p P Y T T Y U K l u u l b C I R R R R ",
"] _ b < 6 y , < 9 > 4 t 7 - a L P P I U K l u u g z m J I I I I ",
"Q ! U f , 7 t , < 0 > 2 r 4 & s S S G P K l u u g z m F J J J J ",
"G G G C i , 7 r < < 0 : , 1 $ 8 v c B L K l u u g l b Z D D D D ",
"S S S S m t < 7 r 1 > ; 3 g a b x l M K K l u u g l v C S S S S ",
"S S S S C g e , 6 4 % q k M A Z x z M K K l u u g l v Z S S S S ",
"S S S S C h y 1 ; 6 0 j z M A C x z M K K l u u g l v Z S S S S ",
"S S S S C g y r i l l l z M A C x z M K K l u u g l v Z S S S S "
};
