/* XPM */
static char *a1ef1a641e2d4e98dc395c6f554d8d82bRUKOw4WzOYTvQLH[] = {
/* columns rows colors chars-per-pixel */
"32 32 156 2 ",
"   c #050505",
".  c #0A0403",
"X  c #0C0A06",
"o  c #070809",
"O  c #0B0B0B",
"+  c #12060A",
"@  c #1E070E",
"#  c #110D0A",
"$  c #1B0A0D",
"%  c #13100E",
"&  c #0E0F10",
"*  c #0F1011",
"=  c #131312",
"-  c #1B1612",
";  c #1A1816",
":  c #161719",
">  c #1C1C1C",
",  c #2F110F",
"<  c #300E16",
"1  c #360F19",
"2  c #221A10",
"3  c #221E1A",
"4  c #321014",
"5  c #3C1613",
"6  c #2C2216",
"7  c #23211F",
"8  c #2A2318",
"9  c #322417",
"0  c #352718",
"q  c #3F2E1E",
"w  c #1E2021",
"e  c #242424",
"r  c #2C2C2C",
"t  c #342C24",
"y  c #382F27",
"u  c #332529",
"i  c #332F2B",
"p  c #3E3123",
"a  c #2F3030",
"s  c #343434",
"d  c #393734",
"f  c #373837",
"g  c #373738",
"h  c #3C3C3C",
"j  c #48171B",
"k  c #441C18",
"l  c #4C1B18",
"z  c #521F1B",
"x  c #402E1D",
"c  c #431724",
"v  c #491520",
"b  c #691E32",
"n  c #463625",
"m  c #493622",
"M  c #4D3925",
"N  c #4F3F2B",
"B  c #533C26",
"V  c #553F29",
"C  c #792927",
"Z  c #742136",
"A  c #54422D",
"S  c #5C432B",
"D  c #62472C",
"F  c #6E412B",
"G  c #664A2F",
"H  c #6A4131",
"J  c #674D31",
"K  c #6C4E31",
"L  c #645136",
"P  c #6F5233",
"I  c #725435",
"U  c #785737",
"Y  c #7A5937",
"T  c #775838",
"R  c #7C5B39",
"E  c #444444",
"W  c #474847",
"Q  c #4A4A4A",
"!  c #555555",
"~  c #735F43",
"^  c #825E3B",
"/  c #84613D",
"(  c #88633D",
")  c #C2433F",
"_  c #AC324B",
"`  c #B33746",
"'  c #BB394C",
"]  c #C43C4D",
"[  c #CB3B56",
"{  c #D33D59",
"}  c #BD4140",
"|  c #846543",
" . c #8A6641",
".. c #8E6942",
"X. c #846C49",
"o. c #966E44",
"O. c #977044",
"+. c #9A7146",
"@. c #96744B",
"#. c #9B7B55",
"$. c #A0774B",
"%. c #A6794B",
"&. c #AD7F4E",
"*. c #C24242",
"=. c #CC4446",
"-. c #D24747",
";. c #D54057",
":. c #D94651",
">. c #AE804F",
",. c #A8895B",
"<. c #B38452",
"1. c #B68956",
"2. c #BD8A55",
"3. c #B58A59",
"4. c #B88D5D",
"5. c #AF946D",
"6. c #B2946A",
"7. c #C18D57",
"8. c #C48F59",
"9. c #C4925B",
"0. c #CC955C",
"q. c #D39A5F",
"w. c #CC9B62",
"e. c #D39D62",
"r. c #DA9F62",
"t. c #C6A06A",
"y. c #CAA26B",
"u. c #DAA468",
"i. c #DBAF72",
"p. c #E2A565",
"a. c #E5A767",
"s. c #E6A867",
"d. c #E7A968",
"f. c #EBAB69",
"g. c #EBAC6A",
"h. c #EDAD6A",
"j. c #EFAF6B",
"k. c #EEAF6C",
"l. c #F1AF6B",
"z. c #EBB06E",
"x. c #F1B06C",
"c. c #F2B16D",
"v. c #F3B16D",
"b. c #F6B36E",
"n. c #F7B46F",
"m. c #FAB66F",
"M. c #E0AF71",
"N. c #E3B273",
"B. c #E4B171",
"V. c #EBB371",
"C. c #EFB97B",
"Z. c #F3B772",
"A. c #FAB670",
"S. c #F4BC7C",
"D. c #ECBD82",
"F. c #F3C084",
/* pixels */
"W W W W E r e e g h h h E h h E h g h h h r w w r r s h h h h h ",
"W W W W E r e e g h h h f 7 % = = & : = > % % > r a a h h h h h ",
"W E W W W r e e g h h g w o O o o o 2 +.&.n o * u a a h h h h h ",
"W W W W E s e e g h g 7 O O   V o...+.f.Z.V & > r a s h h h E h ",
"W E W W E r e e s h r O O O m 2.A.Z.n.l.l.B & e r a s g h h h h ",
"h E h h h u w e a s 7   % x 8.0.0.r.7.g.l.B = e a d s s s s a s ",
"h g g g s r e e r r r = - 0.l.D K &.0 r.l.B % e g h g r r r r r ",
"g > # # > r e w r r r e 2 q.l.D K &.0 r.d.M & e s g a ; X # : r ",
"- X.1.2./ & 7 w e : O O 2 q.l.q.q.p.8.p.S #   = e e =  .2.2...% ",
"X ,.V.n.%.  O O O A O.o...J 0.A.>./ b.a., S +.J O O   <.Z.V.<.X ",
"o 3.V.1.T I P L L 1.A.n.a.R U R I I Y R T 0.Z.4.I L I T 1.Z.<.X ",
">  .e.@.R z.v.N.N.9.8.l.l.g.I q ( 8.m M q.9.w.N.V.M.j.I $.m.1.X ",
"E > | 8.w.i.B.z.e.S S v.v.l.j.g.b.l.f.f.j.V D e.i.k.V.d.w.0.+.= ",
"N h e & A w.t.w.N   S l.l.v.v.j.b.v.j.v.j.B   S u.y.y.u.I # 3 h ",
"h h g s a 7 8 8 r : S j.l.v.v.v.v.v.v.v.j.B w d 6 8 3 9 i s s h ",
"h g h h g r r r f s y I f.j.j.l.S.D.v.a.K y g h a r r r s h h h ",
"a a r i a s s s h h e 0 f.b.b.Z.Z.S.m.s.6 w s s h h E h h h h h ",
"r r r r r r r r h h e 2 ..o.o.O.O.O.O...- w r i g h f g h h h h ",
"r r r r r e e r s s > . 4 < 4 < 4 , < , . > e r s s a s s a s s ",
"w 7 w e w e e e e e = , *.[ =.' ` } [ ) 5 > w e e e e e e e e e ",
"w e e e e 7 e w e e : < [ -.[ b $ z =.{ } k = e e r e e e e e e ",
"g g g g s r 7 e r > c _ *.l 1 u d i l =.;.v * e s f h h E E E E ",
"E E E E h a e e f > @ Z _ @ w h ! h $ ] :.j * r h E Q ! ! ! ! ! ",
"W Q Q Q W s e e f > 2 H b & g W ! W u Z C F p > h E W ! ! ! ! ! ",
"! ! ! ! ! s e e r t | 4.X = h W Q Q E X t 1.T O r s g W Q W Q W ",
"! ! ! ! Q g e e & ^ C.5.= h E E E W f = 6.D.T O r a s E E W W W ",
"! Q Q ! Q a e e & ^ D.5.= d E E h h g ; 1.D.~ O r r s A E E E E ",
"h E E h h r 7 e & | D.3.= s A h s s d s t >.T X r r s h h h h h ",
"h h h h g r 7 &   | 3.n e s h f a i g h % #.~   : a s g h h h h ",
"h h h h h r ; J U 7.o.o i g h h a r g h = #.4.T J w a h h h h E ",
"E h h E f e # / %.%.D O a g h f a a g h % J %.%.~ + r h h h h h ",
"h h h A g r       o   % a s h h a r g E =         O r h E h h h "
};
